#!OML:ASF H:\Terrain\Patient Classification 1\Walking\liu\liu.ASF
:FULLY-SPECIFIED
:DEGREES
307
root 10.016200 16.752899 6.185800 7.373940 7.449890 5.100030
lowerback -8.826258 -5.458750 -7.593432
upperback -0.831531 -6.680465 2.097953
thorax 5.092714 -3.483733 5.605710
lowerneck -20.742809 -5.151201 -14.089460
upperneck 23.945129 -6.439026 13.459930
head 11.984941 -2.559183 6.321436
rclavicle -0.000000 -0.000000
rhumerus -54.682980 6.662832 -91.022247
rradius 38.075397
rwrist -20.894720
rhand -31.107012 -29.904602
rfingers 7.837522
rthumb -1.820984 -62.875233
lclavicle -0.000000 -0.000000
lhumerus -13.197910 -39.116993 99.356178
lradius 40.948929
lwrist 19.423250
lhand -12.430660 -22.880989
lfingers 7.837522
lthumb 16.203991 9.521270
rfemur -48.613293 19.968962 -0.934486
rtibia 27.759491
rfoot -36.129719 -21.861622
rtoes -23.514370
lfemur 15.077261 3.220459 -31.575171
ltibia 0.000000
lfoot -16.130730 0.960086
ltoes 1.318845
308
root 10.002400 16.731899 6.334230 7.508800 7.673760 4.847830
lowerback -8.932143 -5.385732 -7.324174
upperback -0.869600 -6.599417 2.078549
thorax 5.069823 -3.435751 5.441150
lowerneck -20.577150 -5.236649 -13.787181
upperneck 23.768471 -6.642141 13.395691
head 11.906070 -2.637888 6.205122
rclavicle -0.000000 0.000000
rhumerus -54.398632 5.721804 -90.780800
rradius 37.087269
rwrist -19.870399
rhand -29.231071 -30.188730
rfingers 7.837522
rthumb -0.009161 -63.166401
lclavicle -0.000000 0.000000
lhumerus -13.632961 -40.521030 99.716537
lradius 41.656342
lwrist 19.566580
lhand -12.699720 -23.352890
lfingers 7.837522
lthumb 15.944720 9.068147
rfemur -48.764542 19.697479 -0.528724
rtibia 27.527721
rfoot -36.515274 -21.989550
rtoes -22.975700
lfemur 15.548390 3.262270 -31.005152
ltibia 0.000000
lfoot -16.198160 0.716626
ltoes 0.578514
309
root 9.992270 16.712099 6.491320 7.609820 7.929990 5.051830
lowerback -9.042649 -5.421944 -7.617533
upperback -0.792678 -6.609757 2.033042
thorax 5.239872 -3.453098 5.542658
lowerneck -20.187201 -5.231677 -14.094741
upperneck 23.176781 -6.678100 13.946020
head 11.651200 -2.628813 6.440027
rclavicle 0.000000 -0.000000
rhumerus -54.285000 5.893844 -90.907524
rradius 36.652992
rwrist -19.766340
rhand -29.216440 -28.663361
rfingers 7.837522
rthumb 0.004959 -61.641033
lclavicle 0.000000 -0.000000
lhumerus -13.842620 -40.789322 100.157425
lradius 42.167183
lwrist 18.665239
lhand -11.992201 -23.870771
lfingers 7.837522
lthumb 16.626390 8.500129
rfemur -48.513519 18.560081 -0.059051
rtibia 27.211470
rfoot -36.056683 -21.820480
rtoes -23.517012
lfemur 16.106201 3.225651 -30.962801
ltibia 0.000000
lfoot -16.162630 0.337405
ltoes 0.096481
310
root 9.985370 16.687700 6.655970 7.670240 8.008930 5.300190
lowerback -9.026854 -5.452216 -7.891180
upperback -0.830000 -6.625036 1.996753
thorax 5.218433 -3.464098 5.657432
lowerneck -20.982170 -5.476416 -13.968460
upperneck 23.943701 -6.924368 13.508551
head 12.102201 -2.756688 6.241554
rclavicle 0.000000 -0.000000
rhumerus -54.227692 5.674482 -90.614372
rradius 35.928970
rwrist -19.272772
rhand -29.044180 -27.346439
rfingers 7.837522
rthumb 0.171322 -60.324112
lclavicle 0.000000 -0.000000
lhumerus -14.257101 -41.059151 100.764954
lradius 42.580341
lwrist 17.919111
lhand -11.429440 -23.804770
lfingers 7.837522
lthumb 17.168470 8.524560
rfemur -48.105312 16.587780 0.997203
rtibia 26.907871
rfoot -34.749992 -20.760191
rtoes -23.423182
lfemur 16.722311 3.374492 -30.965990
ltibia -0.000000
lfoot -15.906991 -0.159964
ltoes 0.623081
311
root 9.973490 16.668900 6.817870 7.726930 8.048590 4.873230
lowerback -9.120805 -5.352864 -7.361651
upperback -0.844694 -6.539005 2.084599
thorax 5.197687 -3.410583 5.461632
lowerneck -21.147501 -5.623794 -13.929521
upperneck 23.945681 -7.099378 13.406140
head 12.156210 -2.839419 6.166677
rclavicle -0.000000 0.000000
rhumerus -54.101082 5.197049 -90.445740
rradius 35.277550
rwrist -18.732561
rhand -28.954422 -28.522230
rfingers 7.837522
rthumb 0.258043 -61.499794
lclavicle -0.000000 0.000000
lhumerus -14.497010 -42.569561 101.069328
lradius 43.043991
lwrist 18.249222
lhand -11.301730 -23.524160
lfingers 7.837522
lthumb 17.291451 8.795578
rfemur -47.805782 14.478641 3.099558
rtibia 26.773232
rfoot -32.403912 -19.987329
rtoes -23.430330
lfemur 17.266920 3.628680 -30.140221
ltibia -0.000000
lfoot -15.621981 -0.516326
ltoes 0.176711
312
root 9.959380 16.645700 6.992170 7.709690 8.154990 4.541500
lowerback -9.266907 -5.334241 -7.054344
upperback -0.854392 -6.537476 2.177142
thorax 5.247473 -3.405556 5.377108
lowerneck -21.135069 -5.603675 -13.748240
upperneck 23.910370 -7.092833 13.282390
head 12.128160 -2.835426 6.087367
rclavicle 0.000000 -0.000000
rhumerus -54.393463 5.711244 -90.881668
rradius 35.258080
rwrist -18.993372
rhand -30.187519 -27.859261
rfingers 7.837522
rthumb -0.932950 -60.835171
lclavicle 0.000000 -0.000000
lhumerus -15.022700 -43.309753 101.461136
lradius 43.546471
lwrist 17.914711
lhand -10.689019 -23.832050
lfingers 7.837522
lthumb 17.881491 8.440322
rfemur -47.447620 12.667820 4.939759
rtibia 26.809750
rfoot -30.574060 -19.031321
rtoes -21.499281
lfemur 17.939240 3.814778 -29.452612
ltibia -0.000000
lfoot -15.590740 -0.486286
ltoes -2.941741
313
root 9.947110 16.610901 7.173530 7.696500 8.271620 4.715910
lowerback -9.340486 -5.418293 -7.334459
upperback -0.894902 -6.615719 2.118545
thorax 5.279461 -3.448753 5.455472
lowerneck -21.034969 -5.493114 -13.643080
upperneck 23.958551 -7.026515 13.436610
head 12.118590 -2.781988 6.141476
rclavicle -0.000000 0.000000
rhumerus -54.773731 6.062518 -91.200562
rradius 35.184158
rwrist -19.351311
rhand -31.245611 -24.343000
rfingers 7.837522
rthumb -1.954909 -57.312645
lclavicle -0.000000 0.000000
lhumerus -15.921840 -43.140903 101.994423
lradius 44.093941
lwrist 16.746840
lhand -10.038721 -24.511850
lfingers 7.837522
lthumb 18.507502 7.708338
rfemur -47.137310 10.919282 6.035304
rtibia 27.036570
rfoot -29.744110 -17.183540
rtoes -19.250441
lfemur 18.646759 3.933127 -29.364721
ltibia 0.000000
lfoot -15.423650 -0.571463
ltoes -6.543306
314
root 9.935590 16.576000 7.353720 7.724020 8.390540 5.057960
lowerback -9.411359 -5.418237 -7.696051
upperback -0.921260 -6.570069 1.987128
thorax 5.307742 -3.431472 5.521351
lowerneck -20.690779 -5.543659 -13.870230
upperneck 23.771330 -7.110103 13.654850
head 12.012330 -2.825086 6.244535
rclavicle -0.000000 -0.000000
rhumerus -54.970959 5.737963 -91.069328
rradius 34.891891
rwrist -19.080160
rhand -31.123070 -24.444201
rfingers 7.837522
rthumb -1.836549 -57.414833
lclavicle -0.000000 -0.000000
lhumerus -16.810751 -43.384991 102.675545
lradius 44.560890
lwrist 15.752660
lhand -9.576336 -25.024891
lfingers 7.837522
lthumb 18.952671 7.156952
rfemur -46.934250 8.799043 7.130266
rtibia 27.583380
rfoot -28.686901 -15.092661
rtoes -21.587391
lfemur 19.349110 4.017519 -29.446232
ltibia 0.000000
lfoot -15.154920 -0.973057
ltoes -9.274529
315
root 9.917640 16.541700 7.530890 7.789720 8.475270 5.297450
lowerback -9.351650 -5.392002 -7.961921
upperback -1.073456 -6.513397 1.910491
thorax 5.124174 -3.397614 5.609417
lowerneck -20.487942 -5.596580 -13.897731
upperneck 23.954590 -7.125690 13.307030
head 12.030149 -2.880801 6.120697
rclavicle -0.000000 -0.000000
rhumerus -55.179298 5.472896 -90.848343
rradius 34.594120
rwrist -18.746201
rhand -30.206331 -26.742540
rfingers 7.837522
rthumb -0.951122 -59.718338
lclavicle -0.000000 -0.000000
lhumerus -17.791290 -43.470131 103.560822
lradius 44.878132
lwrist 14.789610
lhand -8.950546 -25.073622
lfingers 7.837522
lthumb 19.554810 7.054597
rfemur -47.003773 7.228320 8.055993
rtibia 28.461731
rfoot -27.089260 -13.584121
rtoes -23.824680
lfemur 20.025391 4.124208 -29.323141
ltibia -0.000000
lfoot -14.715470 -1.590941
ltoes -6.782688
316
root 9.892160 16.516600 7.695730 7.876850 8.621950 5.242680
lowerback -9.186639 -5.449741 -8.002952
upperback -1.201937 -6.602882 1.934746
thorax 4.916461 -3.433089 5.662877
lowerneck -20.131321 -5.485843 -14.421440
upperneck 23.377640 -7.063738 14.311220
head 11.798600 -2.794176 6.585063
rclavicle 0.000000 0.000000
rhumerus -55.149712 5.214836 -90.683235
rradius 34.163250
rwrist -18.789211
rhand -30.871502 -25.435411
rfingers 7.837522
rthumb -1.593548 -58.407803
lclavicle 0.000000 0.000000
lhumerus -18.430061 -43.327351 104.045479
lradius 45.197353
lwrist 14.364680
lhand -7.844452 -25.168989
lfingers 7.837522
lthumb 20.618950 6.859600
rfemur -47.247974 6.321513 8.961282
rtibia 29.485060
rfoot -24.742191 -12.264999
rtoes -20.007130
lfemur 20.578800 4.180616 -28.790630
ltibia -0.000000
lfoot -14.006300 -2.095368
ltoes -3.769458
317
root 9.865880 16.495399 7.866580 7.893830 8.915200 5.279870
lowerback -9.160151 -5.519635 -8.171295
upperback -1.128578 -6.681499 1.940763
thorax 5.009081 -3.480477 5.749282
lowerneck -19.896030 -5.483071 -15.137210
upperneck 22.502701 -7.125041 15.617801
head 11.524370 -2.744918 7.166632
rclavicle 0.000000 -0.000000
rhumerus -54.947311 5.036493 -90.634941
rradius 33.612812
rwrist -18.300482
rhand -32.500820 -23.083611
rfingers 7.837522
rthumb -3.167153 -56.039940
lclavicle 0.000000 -0.000000
lhumerus -18.767210 -43.611374 104.371964
lradius 45.500839
lwrist 14.240821
lhand -6.695777 -25.649469
lfingers 7.837522
lthumb 21.723570 6.269032
rfemur -47.244228 5.232931 9.821570
rtibia 30.556021
rfoot -24.769800 -10.865328
rtoes -25.051180
lfemur 21.227251 4.075511 -28.351841
ltibia 0.000000
lfoot -13.558270 -2.784782
ltoes -4.776684
